<svg version="1.1" viewBox="0 0 3.75 3.75" xmlns="http://www.w3.org/2000/svg">
 <g transform="translate(0,-293.25)">
  <path d="m.54519 293.45c-.19017 0-.34451.15434-.34451.34451v2.6541c0 .19155.15434.34589.34451.34589h2.6541c.19017 0 .34589-.15434.34589-.34589v-2.6541c0-.19017-.15572-.34451-.34589-.34451z" style="fill:#ffffff"/>
  <path d="m3.1993 296.86c.23013 0 .41617-.18604.41617-.41617v-2.6527c0-.23151-.18604-.41754-.41617-.41754h-2.6541c-.23013 0-.41617.18603-.41617.41754v2.6527c0 .23013.18604.41617.41617.41617z" style="fill:#211e1e"/>
  <path d="m2.4207 295.59c0-.18879.15296-.34313.34313-.34313.18879 0 .34175.15434.34175.34313 0 .19017-.15296.34313-.34175.34313-.19017 0-.34313-.15296-.34313-.34313m.34313.14883c.082684 0 .14745-.0661.14745-.14883 0-.0827-.064766-.14883-.14745-.14883-.082681 0-.14883.0661-.14883.14883 0 .0827.066146.14883.14883.14883" style="fill:#ffffff"/>
  <path d="m3.2737 295.22v-.34588c0-.13781-.12265-.12265-.12265-.12265h-.69315l-.25356-.42719h-.14883l.25356.42719-.19155.32384h-.43684c-.15158-.31006-.45751-.29077-.45751-.29077h-.8282v.73587h.11851c.015169-.24942.25631-.44924.50987-.44924.25494 0 .49609.19982.51125.44924l.71934.001c.015169-.25081.25631-.45063.51125-.45063.25356 0 .49609.19982.50987.45063h.045476c.049608 0 .089574-.04.089574-.0896v-.21222z" style="fill:#ffffff"/>
  <path d="m.68024 295.59c0-.18879.15296-.34313.34175-.34313.19017 0 .34313.15434.34313.34313 0 .19017-.15296.34313-.34313.34313-.18879 0-.34175-.15296-.34175-.34313m.34175.14883c.082684 0 .15021-.0661.15021-.14883 0-.0827-.067525-.14883-.15021-.14883-.081301 0-.14745.0661-.14745.14883 0 .0827.066146.14883.14745.14883" style="fill:#ffffff"/>
 </g>
</svg>
