<svg version="1.1" viewBox="0 0 3.75 3.75" xmlns="http://www.w3.org/2000/svg">
 <g transform="translate(0,-293.25)">
  <path d="m.55076 293.46c-.19017 0-.34588.15434-.34588.34589v2.6527c0 .19155.15572.34589.34588.34589h2.6527c.19017 0 .34588-.15434.34588-.34589v-2.6527c0-.19155-.15572-.34589-.34588-.34589z" style="fill:#ffffff"/>
  <path d="m3.2035 296.88c.23013 0 .41616-.18742.41616-.41755v-2.6527c0-.23014-.18603-.41755-.41616-.41755h-2.6527c-.23151 0-.41616.18741-.41616.41755v2.6527c0 .23013.18465.41755.41616.41755z" style="fill:#211e1e"/>
  <path d="m2.7005 294.61v-.35967h-.033055c-.099219 0-.17914.0813-.17914.18053 0 .0992.079925.17914.17914.17914z" style="fill:#ffffff"/>
  <path d="m2.429 294.53-.15572-.3142c-.035832-.0648-.10335-.10748-.1819-.10748h-.3638c-.034431 0-.062011.0276-.062011.0606 0 .0344.027552.062.062011.062h.3638c.028928 0 .062011.0193.075794.0482l.099219.19982z" style="fill:#ffffff"/>
  <path d="m3.1539 294.86c.046852.0138.081305.0579.081305.11024h-.26458c-.35002 0-.63252.28388-.63252.63252h-.86403c0-.27974-.18328-.51814-.43546-.60082l-.4768-.1571.079929-.12126c.027552-.0413.075791-.0689.13091-.0689.012418 0 .023424 0 .034466.003l1.0597.32936c.013794.003.027552.006.041342.006.048232 0 .089574-.0248.11438-.0606l.24116-.34865z" style="fill:#ffffff"/>
  <path d="m2.8741 295.88c.089574 0 .16261-.0717.16261-.16123 0-.0896-.073036-.16123-.16261-.16123-.088195 0-.15985.0717-.15985.16123 0 .0896.071656.16123.15985.16123m-.43132-.16123c0-.2384.19292-.43133.43132-.43133.2384 0 .43133.19293.43133.43133s-.19293.43132-.43133.43132c-.2384 0-.43132-.19292-.43132-.43132" style="fill:#ffffff"/>
  <path d="m.887 295.85c.097839 0 .17777-.0786.17777-.17639 0-.0978-.079929-.17777-.17777-.17777-.097839 0-.17777.0799-.17777.17777 0 .0978.079929.17639.17777.17639m-.47542-.17639c0-.26183.21222-.47542.47405-.47542.26321 0 .47405.21359.47405.47542s-.21084.47405-.47405.47405c-.26182 0-.47405-.21222-.47405-.47405" style="fill:#ffffff"/>
 </g>
</svg>
