<svg version="1.1" viewBox="0 0 3.75 3.75" xmlns="http://www.w3.org/2000/svg">
 <g transform="translate(0,-293.25)">
  <path d="m.5445 293.47c-.19017 0-.34589.15434-.34589.34451v2.6541c0 .19155.15572.34589.34589.34589h2.6541c.19155 0 .34589-.15434.34589-.34589v-2.6541c0-.19017-.15434-.34451-.34589-.34451z" style="fill:#ffffff"/>
  <path d="m3.1986 296.88c.23013 0 .41754-.18604.41754-.41617v-2.6527c0-.23013-.18741-.41754-.41754-.41754h-2.6541c-.23013 0-.41617.18741-.41617.41754v2.6527c0 .23013.18604.41617.41617.41617z" style="fill:#211e1e"/>
  <path d="m.33779 295.75c0-.34313.27837-.62149.6215-.62149.34175 0 .62012.27836.62012.62149s-.27837.62012-.62012.62012c-.34313 0-.6215-.27699-.6215-.62012m.6215.50574c.27837 0 .50574-.226.50574-.50574s-.22738-.50574-.50574-.50574c-.27974 0-.50574.226-.50574.50574s.226.50574.50574.50574" style="fill:#ffffff"/>
  <path d="m2.1651 295.76c0-.34313.27836-.62011.6215-.62011.34175 0 .62012.27698.62012.62011s-.27836.6215-.62012.6215c-.34313 0-.6215-.27837-.6215-.6215m.6215.50574c.27836 0 .50436-.226.50436-.50574 0-.27836-.226-.50574-.50436-.50574-.27974 0-.50712.22738-.50712.50574 0 .27974.22738.50574.50712.50574" style="fill:#ffffff"/>
  <path d="m2.1665 294.24c.12816 0 .23289-.10335.23289-.23289 0-.12816-.10473-.23289-.23289-.23289-.12816 0-.23289.10473-.23289.23289 0 .12954.10473.23289.23289.23289" style="fill:#ffffff"/>
  <path d="m2.1761 294.81c-.034431.001-.07028-.0165-.096464-.0579l-.15158-.23702-.31419.30868.29077.15297c.11851.0579.10197.1626.10197.1626v.65595c0 .0744-.060632.13505-.13505.13505-.074415 0-.13367-.0606-.13367-.13505v-.52503l-.50436-.27975c-.059256-.0331-.099219-.0978-.099219-.17087 0-.0496.017921-.0965.049608-.13092l.49334-.49471c.062011-.0689.14745-.0579.14745-.0579.10335 0 .1571.091.1571.091l.25631.40101h.38861c.14056 0 .14056.1819 0 .1819z" style="fill:#ffffff"/>
 </g>
</svg>
