<svg version="1.1" viewBox="0 0 3.75 3.75" xmlns="http://www.w3.org/2000/svg">
 <g transform="translate(0,-293.25)">
  <path d="m.55007 293.47c-.19154 0-.34588.15572-.34588.34588v2.6541c0 .19017.15434.34589.34588.34589h2.6527c.19154 0 .34588-.15572.34588-.34589v-2.6541c0-.19016-.15434-.34588-.34588-.34588z" style="fill:#ffffff"/>
  <path d="m3.2028 296.88c.23013 0 .41754-.18604.41754-.41617v-2.6541c0-.23013-.18741-.41616-.41754-.41616h-2.6527c-.23013 0-.41616.18603-.41616.41616v2.6541c0 .23013.18603.41617.41616.41617z" style="fill:#211e1e"/>
  <path d="m1.6015 294.09c.11024 0 .19982-.0896.19982-.19844 0-.11162-.089574-.20119-.19982-.20119-.11024 0-.19981.0896-.19981.20119 0 .10886.08957.19844.19981.19844" style="fill:#ffffff"/>
  <path d="m.48255 295.08c0-.16261.13091-.2949.29352-.2949h.6215v-.44511c0-.11162.08957-.20119.19981-.20119.11162 0 .2012.0896.2012.20119v.0689l.2949.0758c.052366.0124.085439.0634.073039.11576-.011007.051-.063391.0841-.11576.073l-.25218-.0593v.17088h.29766l.81442-.84198-.024799.2191.40101.26597c.066146.0386.090949.12402.052363.19016-.028928.0537-.088194.0786-.14469.0689l-.03168-.007c-.038583.15709-.18052.27147-.34726.27147-.033055 0-.066146-.005-.096464-.0124l-.30317.62011v.85163c0 .073-.060636.13229-.13367.13229-.073036 0-.13229-.0593-.13229-.13229v-.87092h-.66973l-.11989.20533.2508.59807c.035828.0648.013794.14469-.049611.18052-.064766.0358-.14469.0138-.1819-.0496l-.29215-.6904v-.22048l-.13091.2067v.64079c0 .073-.059256.13229-.13229.13229-.073036 0-.13367-.0593-.13367-.13229v-.74l.11024-.17226v-.58016l-.10886.16675v.48369h-.20946zm2.6059-.41341-.21222-.0413-.12402.24529c.020673.006.041342.008.063391.008.13091 0 .24116-.0896.27285-.21222" style="fill:#ffffff"/>
 </g>
</svg>
