<svg version="1.1" viewBox="0 0 3.75 3.75" xmlns="http://www.w3.org/2000/svg">
 <g transform="translate(0,-293.25)">
  <path d="m.54004 293.45c-.19017 0-.34589.15572-.34589.34727v2.6555c0 .19016.15572.34588.34589.34588h2.6555c.19154 0 .34588-.15572.34588-.34588v-2.6555c0-.19155-.15434-.34727-.34588-.34727z" style="fill:#ffffff"/>
  <path d="m3.1955 296.87c.23013 0 .41754-.18603.41754-.41616v-2.6555c0-.23014-.18741-.41755-.41754-.41755h-2.6555c-.23013 0-.41617.18741-.41617.41755v2.6555c0 .23013.18604.41616.41617.41616z" style="fill:#211e1e"/>
  <path d="m1.9029 294.12c.13229-.004.23702-.11438.23427-.2453-.00413-.13366-.11438-.2384-.24667-.23564-.13229.003-.23702.11438-.23427.24667.00282.13229.11438.2384.24667.23427" style="fill:#ffffff"/>
  <path d="m2.7187 294.92-.3514-.19155-.29215-.45337c-.046852-.0579-.11989-.1006-.20257-.1006-.063391.003-.11851.0303-.16261.0689l-.4396.43821c-.013794.0152-.023424.0344-.027552.0551l-.055122.48369c-.00141.004-.00141.01-.00141.0152.00141.0593.050987.10611.11162.10473.056501-.001.099219-.0482.10473-.10197l.046856-.41341.15296-.15159-.13643 1.1617-.25356.54708c-.00825.0193-.016545.0469-.015169.0717.00282.0896.07717.16123.16674.15847.063391-.001.11575-.04.14332-.0937l.27147-.59118c.0055-.0165.0248-.0551.026176-.073l.031679-.28525.27974.93017c.023424.0648.085439.11438.15847.113.089574-.003.16123-.0772.15985-.16674-.00141-.0124-.00413-.0193-.0055-.0331l-.38861-1.2912.049608-.41892.11024.1695c.00688.011.017921.0207.028928.0276l.38447.21084c.019297.007.033055.011.050987.011.060632-.001.10749-.051.10611-.11162-.00141-.0372-.022049-.0717-.052366-.0896" style="fill:#ffffff"/>
 </g>
</svg>
