<svg version="1.1" viewBox="0 0 3.75 3.75" xmlns="http://www.w3.org/2000/svg">
 <g transform="translate(0,-293.25)">
  <path d="m.54519 293.46c-.19017 0-.34589.15434-.34589.34451v2.6541c0 .19017.15572.34451.34589.34451h2.6541c.19155 0 .34589-.15434.34589-.34451v-2.6541c0-.19017-.15434-.34451-.34589-.34451z" style="fill:#ffffff"/>
  <path d="m3.1993 296.87c.23013 0 .41617-.18603.41617-.41617v-2.6527c0-.23151-.18604-.41617-.41617-.41617h-2.6541c-.22876 0-.41617.18466-.41617.41617v2.6527c0 .23014.18741.41617.41617.41617z" style="fill:#211e1e"/>
  <path d="m2.0707 293.87c-.038583-.14883-.17501-.26045-.33624-.26045-.19293 0-.34865.15572-.34865.34726 0 .0331.00413.062.012418.091h.13918c.00967.0248.020673.0386.020673.0386.042718.0606.113.0992.19154.0992.12954 0 .23427-.10473.23427-.23427 0-.0289.00688-.0551-.0055-.0813z" style="fill:#ffffff"/>
  <path d="m2.061 295.95c-.037208.0358-.086819.0648-.1447.0648v-.75654l.52366-.15021.13091.25907z" style="fill:#ffffff"/>
  <path d="m1.6214 294.22c-.034431-.0386-.08406-.0634-.14056-.0634-.059256 0-.113.0276-.14745.0703l-.41479.63527c-.017921.0289-.027552.062-.027552.0965 0 .0661.033055.12265.08406.1571l.55673.30868v.52641c0 .0744.060632.13505.13505.13505.074415 0 .13505-.0606.13505-.13505v-.65733s.017921-.10472-.10197-.16123l-.34727-.18189.25356-.38723.13367.21084c.027552.0427.063391.0592.096464.0592l.34589-.003c.14056 0 .14056-.1819 0-.18052h-.27974z" style="fill:#ffffff"/>
  <path d="m3.1483 295.08c.0055.005.00963.0124.00963.0207 0 .0165-.013793.0303-.030304.0303-.0055 0-.00826 0-.011007-.001-.060632-.0248-.09784-.0413-.16674-.0413-.046852 0-.10335.0165-.16812.0689l-.060636-.1199c.075791-.0234.13781-.0427.20257-.0427.10335 0 .1571.022.22462.0854" style="fill:#ffffff"/>
  <path d="m.83045 295.17.58566.32246.00141.12953-.66835-.36793c-.048232-.0248-.113-.04-.15985-.04-.068901 0-.10611.0165-.16536.0413-.004127.001-.006879.001-.011007.001-.016545 0-.031679-.0138-.031679-.0303 0-.008.004127-.0152.009631-.0207.067526-.0634.13643-.0854.23978-.0854.053742 0 .11713.007.19982.0496" style="fill:#ffffff"/>
  <path d="m.38809 296.01c0-.27423.22187-.49747.49747-.49747.27561 0 .49747.22324.49747.49747 0 .27561-.22186.49885-.49747.49885-.27561 0-.49747-.22324-.49747-.49885m.49747.34589c.19017 0 .34451-.15434.34451-.34589 0-.19017-.15434-.34451-.34451-.34451-.19017 0-.34451.15434-.34451.34451 0 .19155.15434.34589.34451.34589" style="fill:#ffffff"/>
  <path d="m2.4469 296.01c0-.27423.22186-.49747.49747-.49747.27423 0 .49747.22324.49747.49747 0 .27561-.22324.49885-.49747.49885-.27561 0-.49747-.22324-.49747-.49885m.49747.34589c.19017 0 .34451-.15434.34451-.34589 0-.19017-.15434-.34451-.34451-.34451-.19017 0-.34451.15434-.34451.34451 0 .19155.15434.34589.34451.34589" style="fill:#ffffff"/>
  <path d="m2.8341 295.45-.24116-.48369c-.03168-.0579-.093708-.0978-.16536-.0978h-.1571c-.031715 0-.056501.0262-.056501.0565 0 .0317.0248.0565.056501.0565l.1571-.001c.027552 0 .056501.0179.067525.0441l.22875.4644z" style="fill:#ffffff"/>
 </g>
</svg>
